<?xml version="1.0" encoding="UTF-8"?>
<svg id="Calque_1" data-name="Calque 1" xmlns="http://www.w3.org/2000/svg" viewBox="0 0 187.94 162.9">
  <defs>
    <style>
      .cls-1 {
        font-size: 20px;
      }

      .cls-1, .cls-2, .cls-3, .cls-4, .cls-5 {
        isolation: isolate;
      }

      .cls-1, .cls-3, .cls-4, .cls-6, .cls-5 {
        fill: #e87635;
      }

      .cls-1, .cls-3, .cls-4, .cls-5 {
        font-family: Gluten-Medium, Gluten;
        font-weight: 500;
      }

      .cls-7 {
        fill: #fff;
      }

      .cls-8 {
        fill: #9c3b05;
      }

      .cls-9 {
        fill: #458f8f;
      }

      .cls-3 {
        font-size: 20px;
      }

      .cls-4 {
        font-size: 20px;
      }

      .cls-5 {
        font-size: 20px;
      }
    </style>
  </defs>
  <g>
    <polygon class="cls-7" points="63.4 73.6 98.8 44.8 134.3 73.6 63.4 73.6"/>
    <polygon class="cls-7" points="55.3 92.1 98.8 56.7 142.4 92.1 55.3 92.1"/>
    <polygon class="cls-7" points="53.2 107.5 98.8 70.4 144.5 107.5 53.2 107.5"/>
    <polygon class="cls-7" points="41.7 125 98.8 78.5 156 125 41.7 125"/>
    <rect class="cls-8" x="57.3" y="110.1" width="83" height="52.8"/>
    <g class="cls-2">
      <path class="cls-7" d="M65.9,140.27c-.7-.15-1.17-.5-1.43-1.05s-.38-1.29-.38-2.21c0-.26,0-.57,.02-.91,.01-.34,.03-.7,.06-1.07s.06-.73,.09-1.09,.06-.68,.1-.97,.06-.53,.09-.72c.11-.71,.27-1.23,.47-1.55,.21-.32,.49-.48,.85-.48,.23,0,.4,.05,.52,.15s.19,.24,.23,.42,.06,.4,.06,.65c0,.17,0,.36-.02,.58s-.02,.46-.03,.71c-.01,.25-.02,.52-.03,.79s-.02,.55-.03,.83c-.01,.27-.02,.54-.02,.8,0,.26,0,.51,0,.74,.01,.46,.04,.84,.08,1.14,.05,.31,.14,.55,.27,.72,.13,.17,.33,.3,.59,.38,.26,.08,.61,.12,1.05,.12,.38,.02,.74,.03,1.08,.04s.62,.03,.84,.04c.32-.02,.58-.03,.79-.03,.2,0,.36,.02,.46,.06,.09,.04,.15,.1,.19,.18,.04,.08,.06,.19,.06,.33,0,.23-.07,.42-.21,.57-.14,.16-.33,.29-.58,.39s-.54,.2-.87,.28c-.34,.08-.74,.15-1.19,.19-.45,.05-.9,.07-1.34,.07-.18,0-.37,0-.59-.01-.22,0-.43-.02-.64-.04s-.39-.05-.54-.08Z"/>
      <path class="cls-7" d="M92.44,140.33c-.22,0-.41-.06-.57-.17-.16-.11-.3-.28-.42-.5-.05-.15-.1-.32-.16-.51-.06-.2-.12-.4-.17-.6s-.11-.4-.17-.58c-.06-.19-.12-.34-.18-.46-.08-.17-.17-.3-.28-.38-.11-.08-.27-.14-.49-.17-.11-.01-.27-.03-.49-.04s-.45-.04-.71-.05c-.26-.01-.5-.02-.72-.02-.34,0-.69,0-1.05,.02-.35,.02-.66,.04-.92,.06-.22,.02-.39,.07-.5,.13-.11,.07-.2,.18-.27,.35-.07,.16-.14,.34-.22,.56s-.15,.45-.23,.69-.15,.48-.23,.71c-.11,.26-.25,.45-.41,.58-.16,.13-.38,.2-.66,.2-.21,0-.39-.04-.54-.1-.14-.07-.25-.19-.32-.35s-.1-.37-.1-.64c0-.25,.03-.54,.1-.89,.07-.35,.17-.72,.29-1.12,.12-.4,.25-.81,.4-1.22,.15-.41,.3-.81,.45-1.2s.3-.73,.44-1.04,.26-.55,.36-.74c.18-.34,.39-.66,.62-.97s.49-.59,.78-.83,.6-.44,.95-.58c.34-.14,.72-.21,1.14-.21,.67,0,1.27,.2,1.8,.6,.53,.4,1.01,.94,1.42,1.6,.16,.22,.31,.52,.47,.87,.16,.36,.31,.75,.47,1.18,.16,.43,.3,.88,.44,1.34,.13,.46,.25,.92,.36,1.36,.1,.45,.19,.86,.24,1.23,.06,.38,.08,.69,.08,.95,0,.33-.09,.57-.27,.71-.18,.14-.43,.21-.75,.21Zm-2.33-4.76c.12-.02,.2-.07,.23-.14s.06-.18,.06-.33c0-.17-.03-.37-.08-.62-.06-.24-.13-.5-.23-.77-.1-.27-.21-.52-.34-.76-.18-.35-.4-.64-.64-.87-.25-.23-.51-.35-.8-.35-.31,0-.61,.12-.89,.37s-.53,.55-.74,.93c-.09,.15-.19,.32-.28,.52s-.19,.39-.27,.6-.15,.4-.2,.58c-.05,.18-.08,.33-.08,.46,0,.16,.06,.27,.19,.33,.13,.06,.34,.09,.62,.09h2.68c.31,0,.56,0,.76-.02Z"/>
      <path class="cls-7" d="M106.21,140.17c-.18,0-.35-.05-.5-.14-.15-.09-.29-.24-.41-.44s-.23-.47-.32-.81c-.04-.17-.07-.38-.11-.64s-.07-.54-.11-.85-.07-.63-.1-.96c-.03-.33-.05-.65-.08-.97s-.04-.61-.05-.89c-.01-.28-.02-.51-.02-.7,0-.87,.11-1.55,.34-2.05,.23-.5,.6-.85,1.12-1.06,.52-.21,1.22-.31,2.09-.31,.68,0,1.32,.06,1.94,.19,.62,.13,1.17,.32,1.65,.58s.86,.6,1.14,1.01c.28,.41,.42,.91,.42,1.48,0,.44-.09,.83-.29,1.16-.19,.33-.46,.61-.8,.83s-.76,.4-1.23,.52-.99,.21-1.55,.25c-.37,.02-.72,.03-1.07,.01s-.68-.02-1.01-.02c-.15,0-.24,.06-.28,.17-.04,.11-.06,.26-.06,.46,0,.11,0,.24,0,.39,0,.15,.01,.31,.02,.48,.01,.17,.02,.34,.03,.51,0,.17,.01,.33,.02,.47,0,.14,0,.27,0,.36,0,.32-.07,.56-.2,.72s-.34,.24-.62,.24Zm1.16-4.94c.38,0,.75-.02,1.13-.05,.38-.03,.73-.09,1.07-.17,.34-.08,.64-.18,.9-.31,.26-.13,.47-.29,.62-.49,.15-.2,.23-.43,.23-.7,0-.3-.07-.56-.22-.77s-.33-.39-.56-.53c-.23-.14-.48-.25-.74-.33-.27-.08-.52-.14-.77-.17-.25-.03-.45-.05-.62-.05-.33,0-.6,.03-.83,.08-.22,.05-.4,.13-.54,.24-.13,.11-.23,.25-.29,.41-.06,.16-.09,.36-.09,.58,0,.32,0,.61,.02,.85,.01,.25,.04,.46,.07,.64,.03,.18,.07,.32,.13,.43,.05,.11,.12,.19,.2,.25,.08,.05,.18,.08,.3,.08Z"/>
      <path class="cls-7" d="M125.54,140.39c-.22,0-.4-.07-.54-.21-.14-.14-.26-.33-.36-.58-.05-.13-.09-.34-.14-.64s-.08-.65-.12-1.04c-.04-.4-.07-.81-.1-1.24-.03-.43-.06-.85-.08-1.27-.02-.41-.04-.78-.05-1.11s-.02-.58-.02-.76c0-.63,.04-1.16,.12-1.6,.08-.44,.24-.77,.46-1.01,.22-.23,.54-.35,.96-.35,.29,0,.58,.12,.86,.35s.62,.6,1,1.11c.38,.5,.85,1.16,1.42,1.97,.75,1.11,1.36,1.93,1.81,2.46,.46,.53,.78,.8,.98,.8,.1,0,.18-.02,.24-.07,.06-.05,.11-.15,.14-.29,.04-.15,.06-.37,.07-.67,.01-.13,.02-.32,.02-.59s0-.56,0-.89c0-.33,0-.67-.01-1.02s0-.68,0-.99,0-.58,0-.8c0-.22,0-.37,.02-.44,.06-.32,.17-.54,.31-.67,.14-.12,.35-.18,.6-.18,.19,0,.36,.03,.49,.1,.13,.07,.24,.17,.32,.3,.08,.13,.14,.3,.18,.51,.04,.21,.07,.45,.08,.73,0,.16,.01,.39,.02,.7s.01,.65,.02,1.04c0,.39,0,.79,0,1.21,0,.42,0,.83-.02,1.22,0,.39-.02,.75-.04,1.08-.02,.32-.04,.58-.07,.77-.06,.41-.16,.76-.29,1.03s-.31,.48-.52,.62c-.22,.14-.5,.21-.83,.21-.31,0-.64-.15-1.01-.46s-.76-.74-1.18-1.28c-.42-.54-.87-1.16-1.35-1.85-.31-.44-.59-.85-.85-1.22-.26-.37-.5-.7-.7-.97s-.37-.49-.51-.64-.24-.23-.31-.23c-.12,0-.21,.07-.26,.21-.05,.14-.07,.43-.07,.86,0,.25,0,.52,.02,.82s.02,.61,.04,.92c.02,.32,.03,.63,.06,.95s.04,.63,.05,.93c.01,.3,.02,.57,.02,.83,0,.25,0,.47-.02,.65-.06,.27-.16,.46-.3,.56-.14,.1-.32,.15-.55,.15Z"/>
    </g>
    <circle class="cls-9" cx="76.9" cy="139" r="2.2"/>
    <circle class="cls-9" cx="99.4" cy="139" r="2.2"/>
    <circle class="cls-9" cx="117.8" cy="140" r="2.2"/>
    <path class="cls-9" d="M115.5,140c0-1.2,1-2.2,2.2-2.2s2.2,1,2.2,2.2-1,2.2-2.2,2.2-2.2-1-2.2-2.2Z"/>
    <polygon class="cls-6" points="57.3 110 97.9 121.8 140.3 110 57.3 110"/>
  </g>
  <text class="cls-3" transform="translate(15.02 73.11) rotate(-67.7)"><tspan x="0" y="0">É</tspan></text>
  <text class="cls-3" transform="translate(19.22 62.81) rotate(-60.5)"><tspan x="0" y="0">C</tspan></text>
  <text class="cls-3" transform="translate(25.12 52.41) rotate(-52.6)"><tspan x="0" y="0">R</tspan></text>
  <text class="cls-3" transform="translate(32.42 43.11) rotate(-46.7)"><tspan x="0" y="0">I</tspan></text>
  <text class="cls-5" transform="translate(36.02 39.01) rotate(-40.4)"><tspan x="0" y="0">R</tspan></text>
  <text class="cls-3" transform="translate(45.02 31.41) rotate(-32.2)"><tspan x="0" y="0">E</tspan></text>
  <text class="cls-3" transform="translate(59.92 22.61) rotate(-18.3)"><tspan x="0" y="0">A</tspan></text>
  <text class="cls-3" transform="translate(73.92 18.01) rotate(-8.7)"><tspan x="0" y="0">U</tspan></text>
  <text class="cls-1" transform="translate(93.32 15.81) rotate(3.5)"><tspan x="0" y="0">P</tspan></text>
  <text class="cls-3" transform="translate(105.72 16.51) rotate(11.6)"><tspan x="0" y="0">È</tspan></text>
  <text class="cls-3" transform="translate(116.62 18.71) rotate(19.8)"><tspan x="0" y="0">R</tspan></text>
  <text class="cls-3" transform="translate(127.73 22.71) rotate(28.1)"><tspan x="0" y="0">E</tspan></text>
  <text class="cls-3" transform="translate(142.73 31.31) rotate(41.6)"><tspan x="0" y="0">N</tspan></text>
  <text class="cls-3" transform="translate(153.63 40.91) rotate(51.5)"><tspan x="0" y="0">O</tspan></text>
  <text class="cls-4" transform="translate(163.22 53.2) rotate(59.9)"><tspan x="0" y="0">Ë</tspan></text>
  <text class="cls-3" transform="translate(168.83 62.91) rotate(66.6)"><tspan x="0" y="0">L</tspan></text>
</svg>