<?xml version="1.0" encoding="UTF-8"?><svg id="Calque_1" xmlns="http://www.w3.org/2000/svg" viewBox="0 0 1190.6 841.9"><defs><style>.cls-1,.cls-2{fill:#fff;}.cls-2{font-family:Gluten-Regular, Gluten;font-size:16.1px;}.cls-3{fill:#010616;}.cls-4{fill:#458f8f;}</style></defs><circle class="cls-3" cx="593.8" cy="380.4" r="79.6"/><g><polygon class="cls-1" points="614.6 352.3 629.2 352.3 593.8 323.5 558.4 352.3 573 352.3 593.8 335.4 614.6 352.3"/><polygon class="cls-1" points="593.8 349.1 620.5 370.8 637.3 370.8 614.6 352.3 593.8 335.4 573 352.3 550.3 370.8 567.1 370.8 593.8 349.1"/><polygon class="cls-1" points="593.8 357.2 629.4 386.2 639.5 386.2 620.5 370.8 593.8 349.1 567.1 370.8 548.1 386.2 558.1 386.2 593.8 357.2"/><polygon class="cls-1" points="651 403.6 629.4 386.2 593.8 357.2 558.1 386.2 536.6 403.6 651 403.6"/></g><g><rect class="cls-3" x="552.3" y="388.7" width="83" height="52.8"/><path class="cls-1" d="m635.8,442h-84v-53.8h84v53.8Zm-83-1h82v-51.8h-82v51.8Z"/></g><text class="cls-2" transform="translate(558.4 418.7)"><tspan x="0" y="0" xml:space="preserve">L  A  P  N</tspan></text><circle class="cls-1" cx="571.8" cy="417.7" r="2.2"/><circle class="cls-1" cx="594.4" cy="417.7" r="2.2"/><circle class="cls-4" cx="612.7" cy="418.7" r="2.2"/><path class="cls-1" d="m610.5,418.7c0-1.2,1-2.2,2.2-2.2,1.2,0,2.2,1,2.2,2.2,0,1.2-1,2.2-2.2,2.2-1.2,0-2.2-1-2.2-2.2Z"/><g><polygon class="cls-3" points="552.3 388.7 592.8 400.5 635.3 388.7 552.3 388.7"/><path class="cls-1" d="m592.8,401h-.1s-40.4-12.3-40.4-12.3h83l-42.5,12.3Zm-37-11.8l37,10.8,38.8-10.8h-75.8Z"/></g></svg>